<svg width="20" height="20" viewBox="0 0 20 20" fill="none" xmlns="http://www.w3.org/2000/svg">
<path d="M9.77656 5H15.2148C15.5384 5 15.8008 4.73766 15.8008 4.41406C15.8008 4.09047 15.5384 4 15.2148 4H9.77656C9.45296 4 9.19062 4.09047 9.19062 4.41406C9.19062 4.73766 9.45292 5 9.77656 5Z" fill="white"/>
<path d="M18.2812 7.73855V1.08258C18.2812 0.485664 17.7956 0 17.1987 0H7.76227C7.16535 0 6.67969 0.485664 6.67969 1.08258V7.73855C6.23777 7.82863 5.84516 8.05512 5.54688 8.37148C5.15484 7.95566 4.59961 7.69531 3.98438 7.69531H2.14844C0.963789 7.69531 0 8.6591 0 9.84375V17.8516C0 19.0362 0.963789 20 2.14844 20H3.98438C4.59961 20 5.15484 19.7396 5.54688 19.3238C5.93891 19.7396 6.49414 20 7.10938 20H17.8516C19.0362 20 20 19.0362 20 17.8516V9.84375C20 8.80621 19.2607 7.93816 18.2812 7.73855ZM17.1094 1.08258V7.69531H8V1.08258H17.1094ZM4.96094 17.8516C4.96094 18.39 4.52285 18.8281 3.98438 18.8281H2.14844C1.60996 18.8281 1.17188 18.39 1.17188 17.8516V9.84375C1.17188 9.30527 1.60996 8.86719 2.14844 8.86719H3.98438C4.52285 8.86719 4.96094 9.30527 4.96094 9.84375V17.8516ZM18.8281 17.8516C18.8281 18.39 18.39 18.8281 17.8516 18.8281H7.10938C6.5709 18.8281 6.13281 18.39 6.13281 17.8516V9.84375C6.13281 9.30527 6.5709 8.86719 7.10938 8.86719H17.8516C18.39 8.86719 18.8281 9.30527 18.8281 9.84375V17.8516Z" fill="white"/>
<path d="M9.74609 10.918H8.96484C8.64125 10.918 8.37891 11.1803 8.37891 11.5039C8.37891 11.8275 8.64125 12.0898 8.96484 12.0898H9.74609C10.0697 12.0898 10.332 11.8275 10.332 11.5039C10.332 11.1803 10.0697 10.918 9.74609 10.918Z" fill="white"/>
<path d="M12.8711 10.918H12.0898C11.7662 10.918 11.5039 11.1803 11.5039 11.5039C11.5039 11.8275 11.7662 12.0898 12.0898 12.0898H12.8711C13.1947 12.0898 13.457 11.8275 13.457 11.5039C13.457 11.1803 13.1947 10.918 12.8711 10.918Z" fill="white"/>
<path d="M15.9961 10.918H15.2148C14.8912 10.918 14.6289 11.1803 14.6289 11.5039C14.6289 11.8275 14.8912 12.0898 15.2148 12.0898H15.9961C16.3197 12.0898 16.582 11.8275 16.582 11.5039C16.582 11.1803 16.3197 10.918 15.9961 10.918Z" fill="white"/>
<path d="M9.74609 13.2617H8.96484C8.64125 13.2617 8.37891 13.5241 8.37891 13.8477C8.37891 14.1713 8.64125 14.4336 8.96484 14.4336H9.74609C10.0697 14.4336 10.332 14.1713 10.332 13.8477C10.332 13.5241 10.0697 13.2617 9.74609 13.2617Z" fill="white"/>
<path d="M12.8711 13.2617H12.0898C11.7662 13.2617 11.5039 13.5241 11.5039 13.8477C11.5039 14.1713 11.7662 14.4336 12.0898 14.4336H12.8711C13.1947 14.4336 13.457 14.1713 13.457 13.8477C13.457 13.5241 13.1947 13.2617 12.8711 13.2617Z" fill="white"/>
<path d="M15.9961 13.2617H15.2148C14.8912 13.2617 14.6289 13.5241 14.6289 13.8477C14.6289 14.1713 14.8912 14.4336 15.2148 14.4336H15.9961C16.3197 14.4336 16.582 14.1713 16.582 13.8477C16.582 13.5241 16.3197 13.2617 15.9961 13.2617Z" fill="white"/>
<path d="M9.74609 15.6055H8.96484C8.64125 15.6055 8.37891 15.8678 8.37891 16.1914C8.37891 16.515 8.64125 16.7773 8.96484 16.7773H9.74609C10.0697 16.7773 10.332 16.515 10.332 16.1914C10.332 15.8678 10.0697 15.6055 9.74609 15.6055Z" fill="white"/>
<path d="M12.8711 15.6055H12.0898C11.7662 15.6055 11.5039 15.8678 11.5039 16.1914C11.5039 16.515 11.7662 16.7773 12.0898 16.7773H12.8711C13.1947 16.7773 13.457 16.515 13.457 16.1914C13.457 15.8678 13.1947 15.6055 12.8711 15.6055Z" fill="white"/>
<path d="M15.9961 15.6055H15.2148C14.8912 15.6055 14.6289 15.8678 14.6289 16.1914C14.6289 16.515 14.8912 16.7773 15.2148 16.7773H15.9961C16.3197 16.7773 16.582 16.515 16.582 16.1914C16.582 15.8678 16.3197 15.6055 15.9961 15.6055Z" fill="white"/>
</svg>
