<svg width="18" height="21" viewBox="0 0 18 21" fill="none" xmlns="http://www.w3.org/2000/svg">
<path fill-rule="evenodd" clip-rule="evenodd" d="M1.60175 8.92623V8.93861C1.67359 10.9376 2.36876 12.865 3.59109 14.4536L3.59621 14.4603C5.02796 16.3622 6.78495 17.9987 8.78688 19.2948C8.81735 19.3146 8.84643 19.3363 8.87393 19.36C8.9463 19.4223 9.05365 19.4223 9.12602 19.36C9.15428 19.3357 9.18421 19.3134 9.21559 19.2932C10.5585 18.4308 11.7968 17.417 12.9057 16.2718C14.8524 14.2276 16.3453 11.7066 16.3982 9.06491V8.98027L16.3982 8.97756C16.4121 4.91318 13.111 1.60715 9.02511 1.59335C4.93963 1.57954 1.61635 4.86246 1.60175 8.92623ZM4.64629e-06 8.92215C0.0168921 3.97781 4.06001 -0.0167456 9.03055 5.27884e-05C14.0007 0.0168498 18.0162 4.03798 18 8.98176V9.07264L17.9998 9.08771C17.9387 12.2983 16.1465 15.1863 14.0662 17.3701L14.0618 17.3747C12.8778 18.5977 11.5569 19.6817 10.125 20.6056C9.46831 21.1318 8.52994 21.1315 7.87358 20.6045C5.73173 19.2113 3.85107 17.4563 2.31657 15.4187C0.890639 13.564 0.0810673 11.3135 0.000472203 8.97991C0.000157401 8.9708 0 8.96168 0 8.95256L4.64629e-06 8.92215ZM8.99998 7.26458C7.99099 7.26458 7.17305 8.07821 7.17305 9.08187C7.17305 10.0855 7.99099 10.8992 8.99998 10.8992C10.009 10.8992 10.8269 10.0855 10.8269 9.08187C10.8269 8.07821 10.009 7.26458 8.99998 7.26458ZM5.5713 9.08187C5.5713 7.19826 7.10637 5.67128 8.99998 5.67128C10.8936 5.67128 12.4286 7.19826 12.4286 9.08187C12.4286 10.9655 10.8936 12.4925 8.99998 12.4925C7.10637 12.4925 5.5713 10.9655 5.5713 9.08187Z" fill="white"/>
</svg>
