<svg width="45" height="40" viewBox="0 0 45 40" fill="none" xmlns="http://www.w3.org/2000/svg">
<path d="M44.4276 27.682H44.0677L37.6025 7.87621C37.9559 7.71238 38.1937 7.37864 38.1937 6.98422C38.1937 6.93568 38.1873 6.88714 38.1809 6.84466H38.4636C39.0035 6.84466 39.1127 6.22573 38.5986 6.0983L30.5267 4.12621C30.4817 4.11408 30.4367 4.10801 30.3917 4.10801H23.9651C23.7851 3.90777 23.5666 3.74393 23.3224 3.61651V3.59223C24.0807 3.48908 24.6013 3.20388 24.6013 2.45752C24.6013 1.60801 23.091 0.424757 22.5126 0C21.9342 0.424757 20.424 1.60801 20.424 2.45752C20.424 3.20388 20.9445 3.48908 21.7029 3.59223V3.62257C21.4587 3.74393 21.2401 3.91384 21.0602 4.11408H14.6335C14.5885 4.11408 14.5436 4.12015 14.4986 4.13228L6.41382 6.0983C5.89968 6.22573 6.00894 6.84466 6.54878 6.84466H6.83155C6.82512 6.8932 6.8187 6.93568 6.8187 6.98422C6.8187 7.37864 7.06291 7.71238 7.40995 7.87621L0.944721 27.682H0.584827C0.263494 27.682 0 27.9308 0 28.2342C0 28.5376 0.263494 28.7864 0.584827 28.7864H0.732641C1.40101 30.5279 4.338 31.8386 7.86625 31.8386C11.3945 31.8386 14.3315 30.5279 14.9999 28.7864H15.1477C15.469 28.7864 15.7325 28.5376 15.7325 28.2342C15.7325 27.9308 15.469 27.682 15.1477 27.682H14.7878L8.32897 7.87621C8.67601 7.71238 8.92022 7.37864 8.92022 6.98422C8.92022 6.93568 8.91379 6.88714 8.90737 6.84466H21.0409C21.2209 7.0449 21.4394 7.20874 21.6836 7.33617L21.3751 20.7403H20.4111V36.5898H17.0628C16.0667 36.5898 15.2569 37.3544 15.2569 38.2949H15.077C14.0808 38.2949 13.2646 39.0595 13.2646 40H22.5062H31.7478C31.7478 39.0595 30.938 38.2949 29.9419 38.2949H29.7555C29.7555 37.3544 28.9457 36.5898 27.9496 36.5898H24.6013V20.7342H23.6373L23.3288 7.3301C23.573 7.20874 23.7915 7.03884 23.9715 6.83859H36.105C36.0986 6.88714 36.0922 6.92961 36.0922 6.97816C36.0922 7.37257 36.3364 7.70631 36.6834 7.87015L30.2118 27.682H29.8519C29.5306 27.682 29.2671 27.9308 29.2671 28.2342C29.2671 28.5376 29.5306 28.7864 29.8519 28.7864H29.9997C30.6681 30.5279 33.6051 31.8386 37.1333 31.8386C40.6615 31.8386 43.5985 30.5279 44.2669 28.7864H44.4147C44.7361 28.7864 44.9995 28.5376 44.9995 28.2342C45.0124 27.9308 44.7489 27.682 44.4276 27.682ZM7.62846 8.75607V27.6881H1.446L7.62846 8.75607ZM8.11046 27.682V8.75L14.2929 27.682H8.11046ZM37.3775 27.682V8.75L43.56 27.682H37.3775ZM36.8955 8.75607V27.6881H30.7131L36.8955 8.75607Z" fill="white"/>
</svg>
