<svg width="21" height="16" viewBox="0 0 21 16" fill="none" xmlns="http://www.w3.org/2000/svg">
<path d="M19.2705 0H1.72942C0.775768 0 0 0.797464 0 1.77779V14.2222C0 15.2023 0.775768 16 1.72942 16H19.2706C20.224 16 21 15.2023 21 14.2222V1.77779C21 0.797464 20.2239 0 19.2705 0ZM19.6944 14.2222C19.6944 14.3598 19.4045 14.6726 19.2706 14.6726H1.72942C1.5955 14.6726 1.28587 14.3598 1.28587 14.2222V4.44824L10.0007 9.59643C10.2299 9.7351 10.514 9.73687 10.7448 9.60098L19.6944 4.43424V14.2222ZM19.5176 2.67809L10.3814 8.05867L1.48234 2.68036V1.77774C1.48234 1.64008 1.59546 1.30768 1.72938 1.30768H19.2705C19.4045 1.30768 19.5176 1.64013 19.5176 1.77774V2.67809Z" fill="white"/>
</svg>
