<svg width="20" height="20" viewBox="0 0 20 20" fill="none" xmlns="http://www.w3.org/2000/svg">
<path fill-rule="evenodd" clip-rule="evenodd" d="M2.8205 2.09042C2.23446 2.58987 1.7851 3.13609 1.67839 3.3141C1.66847 3.33064 1.65782 3.34673 1.64647 3.36231C1.1787 4.00434 1.1325 4.9283 1.746 6.28411C1.74947 6.29179 1.7528 6.29953 1.75597 6.30734C2.5644 8.29807 4.53665 10.8741 6.8505 13.1855C9.16404 15.4967 11.7201 17.4446 13.6275 18.2426C13.6357 18.246 13.6438 18.2496 13.6518 18.2533C14.9903 18.8791 15.9051 18.8126 16.5506 18.3476C16.5683 18.3349 16.5866 18.3231 16.6055 18.3122C16.6055 18.3122 16.6086 18.3103 16.6153 18.3059C16.6209 18.3023 16.6281 18.2975 16.6368 18.2914C16.6394 18.2896 16.6422 18.2876 16.6451 18.2855C16.6704 18.2676 16.7029 18.2434 16.7421 18.2127C16.8204 18.1513 16.9184 18.0694 17.0291 17.9701C17.251 17.7711 17.5135 17.512 17.7619 17.2239C18.012 16.9337 18.2355 16.6283 18.391 16.3364C18.5456 16.0462 18.6067 15.8186 18.6054 15.6577C18.5884 15.5148 18.4896 15.3304 18.2812 15.1159L18.2812 15.1158C18.0247 14.8518 17.3576 14.2938 16.6742 13.776C16.3377 13.521 16.0112 13.2864 15.7452 13.1121C15.6117 13.0246 15.5008 12.9572 15.4159 12.9111C15.3596 12.8805 15.3299 12.8678 15.3215 12.864C15.0428 12.8135 14.8153 12.9343 14.3201 13.2196C13.8772 13.4747 13.1789 13.8768 12.2954 13.5543C12.2875 13.5514 12.2796 13.5483 12.2717 13.5451C9.50579 12.4101 7.54573 10.4385 6.41675 7.66064C6.41347 7.65255 6.41034 7.64439 6.40738 7.63617C6.08929 6.75216 6.48702 6.05384 6.74135 5.60775C7.02525 5.10977 7.14741 4.87821 7.0953 4.59294C7.0919 4.58536 7.07942 4.55536 7.04808 4.49698C7.00223 4.41155 6.93517 4.30003 6.84817 4.1658C6.67488 3.89841 6.44153 3.57015 6.18794 3.23181C5.68495 2.56075 5.1433 1.9045 4.8736 1.6332C4.86717 1.62738 4.86085 1.62142 4.85465 1.61533C4.64022 1.4047 4.45741 1.30705 4.31618 1.29044C4.17427 1.2875 3.96283 1.34012 3.68346 1.4864C3.40387 1.6328 3.10699 1.84626 2.8205 2.09042ZM3.08491 0.343312C3.46887 0.142257 3.92278 -0.0197576 4.38937 0.0019555C4.39783 0.00234932 4.40628 0.00290979 4.41472 0.00363658C4.98521 0.0527597 5.43333 0.380623 5.73561 0.672197C5.74411 0.679726 5.75242 0.687497 5.76055 0.695505C6.09719 1.02719 6.70141 1.76548 7.22042 2.45793C7.48375 2.80926 7.73591 3.16308 7.93095 3.46402C8.02813 3.61395 8.11595 3.75815 8.18497 3.88673C8.24442 3.99749 8.32254 4.15482 8.35521 4.31281C8.52042 5.11047 8.14888 5.75172 7.91245 6.15978C7.89489 6.19009 7.87808 6.21911 7.86228 6.24682C7.60164 6.704 7.52424 6.91776 7.61767 7.18845C8.61572 9.63507 10.3163 11.3443 12.7483 12.346C13.0123 12.4385 13.2208 12.3637 13.676 12.1015C13.7037 12.0856 13.7327 12.0686 13.763 12.0508C14.168 11.8137 14.8084 11.4386 15.6051 11.6048L15.6061 11.605C15.7643 11.6382 15.9216 11.7173 16.0318 11.7772C16.1598 11.8468 16.3033 11.9351 16.4525 12.0329C16.7519 12.2291 17.1039 12.4827 17.4534 12.7475C18.142 13.2692 18.8768 13.8772 19.2067 14.2168C19.5002 14.5189 19.8444 14.9786 19.8928 15.566C19.8936 15.5761 19.8942 15.5862 19.8946 15.5963C19.9115 16.0793 19.7407 16.5472 19.5298 16.9432C19.3145 17.3472 19.027 17.7324 18.7392 18.0663C18.4496 18.4023 18.1472 18.7006 17.8905 18.9308C17.6627 19.135 17.4395 19.3139 17.2816 19.4111C16.1118 20.2389 14.6626 20.1472 13.1174 19.4278C10.9828 18.5312 8.29131 16.4487 5.93859 14.0984C3.58581 11.7481 1.47315 9.03155 0.565232 6.80453C-0.123896 5.27572 -0.258396 3.80607 0.587749 2.62443C0.803053 2.27917 1.3505 1.64789 1.98355 1.10836C2.31482 0.826043 2.69238 0.548855 3.08491 0.343312ZM11.8189 0.819759C11.8584 0.465647 12.1775 0.210632 12.5316 0.250166C16.4588 0.688607 19.5554 3.80264 19.996 7.7442C20.0355 8.09831 19.7806 8.41745 19.4265 8.45704C19.0723 8.49662 18.7532 8.24164 18.7136 7.88754C18.3395 4.54022 15.7115 1.90351 12.3885 1.53252C12.0344 1.49298 11.7793 1.17387 11.8189 0.819759ZM11.8269 4.2561C11.8955 3.90644 12.2345 3.67854 12.5841 3.74708C14.577 4.13769 16.1313 5.70285 16.5188 7.70196C16.5866 8.05177 16.3579 8.3903 16.0082 8.4581C15.6583 8.5259 15.3198 8.2973 15.252 7.9475C14.9638 6.46072 13.8096 5.30215 12.3359 5.0133C11.9863 4.94477 11.7584 4.60576 11.8269 4.2561Z" fill="white"/>
</svg>
